<mxfile host="app.diagrams.net" agent="Mozilla/5.0 (Windows NT 10.0; Win64; x64) AppleWebKit/537.36 (KHTML, like Gecko) Chrome/134.0.0.0 Safari/537.36" version="26.2.5">
  <diagram name="Trang-1" id="aASZCF7EHBaw_Sp9Z4Dy">
    <mxGraphModel dx="1428" dy="777" grid="1" gridSize="10" guides="1" tooltips="1" connect="1" arrows="1" fold="1" page="1" pageScale="1" pageWidth="827" pageHeight="1169" math="0" shadow="0">
      <root>
        <mxCell id="0" />
        <mxCell id="1" parent="0" />
        <mxCell id="yXTaQRkerRwVlbzqtuJn-1" value="ID" style="ellipse;whiteSpace=wrap;html=1;align=center;" vertex="1" parent="1">
          <mxGeometry x="50" y="540" width="100" height="40" as="geometry" />
        </mxCell>
        <mxCell id="yXTaQRkerRwVlbzqtuJn-2" value="Sách" style="whiteSpace=wrap;html=1;align=center;" vertex="1" parent="1">
          <mxGeometry x="210" y="630" width="100" height="40" as="geometry" />
        </mxCell>
        <mxCell id="yXTaQRkerRwVlbzqtuJn-3" value="Gia" style="ellipse;whiteSpace=wrap;html=1;align=center;" vertex="1" parent="1">
          <mxGeometry x="50" y="730" width="100" height="40" as="geometry" />
        </mxCell>
        <mxCell id="yXTaQRkerRwVlbzqtuJn-4" value="Tên Sách" style="ellipse;whiteSpace=wrap;html=1;align=center;" vertex="1" parent="1">
          <mxGeometry x="50" y="640" width="100" height="40" as="geometry" />
        </mxCell>
        <mxCell id="yXTaQRkerRwVlbzqtuJn-26" value="" style="endArrow=none;html=1;rounded=0;exitX=1;exitY=0.5;exitDx=0;exitDy=0;entryX=0;entryY=0.5;entryDx=0;entryDy=0;" edge="1" parent="1" source="yXTaQRkerRwVlbzqtuJn-4" target="yXTaQRkerRwVlbzqtuJn-2">
          <mxGeometry relative="1" as="geometry">
            <mxPoint x="430" y="540" as="sourcePoint" />
            <mxPoint x="590" y="540" as="targetPoint" />
          </mxGeometry>
        </mxCell>
        <mxCell id="yXTaQRkerRwVlbzqtuJn-27" value="" style="endArrow=none;html=1;rounded=0;exitX=1;exitY=0.5;exitDx=0;exitDy=0;entryX=0.07;entryY=0;entryDx=0;entryDy=0;entryPerimeter=0;" edge="1" parent="1" source="yXTaQRkerRwVlbzqtuJn-1" target="yXTaQRkerRwVlbzqtuJn-2">
          <mxGeometry relative="1" as="geometry">
            <mxPoint x="430" y="540" as="sourcePoint" />
            <mxPoint x="590" y="540" as="targetPoint" />
          </mxGeometry>
        </mxCell>
        <mxCell id="yXTaQRkerRwVlbzqtuJn-28" value="" style="endArrow=none;html=1;rounded=0;exitX=1;exitY=0.5;exitDx=0;exitDy=0;entryX=0.07;entryY=1.125;entryDx=0;entryDy=0;entryPerimeter=0;" edge="1" parent="1" source="yXTaQRkerRwVlbzqtuJn-3" target="yXTaQRkerRwVlbzqtuJn-2">
          <mxGeometry relative="1" as="geometry">
            <mxPoint x="430" y="540" as="sourcePoint" />
            <mxPoint x="590" y="540" as="targetPoint" />
          </mxGeometry>
        </mxCell>
        <mxCell id="yXTaQRkerRwVlbzqtuJn-29" value="Tác Gỉa" style="whiteSpace=wrap;html=1;align=center;" vertex="1" parent="1">
          <mxGeometry x="455" y="630" width="100" height="40" as="geometry" />
        </mxCell>
        <mxCell id="yXTaQRkerRwVlbzqtuJn-30" value="Tentacgia" style="ellipse;whiteSpace=wrap;html=1;align=center;" vertex="1" parent="1">
          <mxGeometry x="640" y="710" width="100" height="40" as="geometry" />
        </mxCell>
        <mxCell id="yXTaQRkerRwVlbzqtuJn-31" value="ID" style="ellipse;whiteSpace=wrap;html=1;align=center;" vertex="1" parent="1">
          <mxGeometry x="640" y="540" width="100" height="40" as="geometry" />
        </mxCell>
        <mxCell id="yXTaQRkerRwVlbzqtuJn-32" value="" style="endArrow=none;html=1;rounded=0;entryX=0;entryY=0.75;entryDx=0;entryDy=0;entryPerimeter=0;exitX=1;exitY=1;exitDx=0;exitDy=0;" edge="1" parent="1" source="yXTaQRkerRwVlbzqtuJn-29" target="yXTaQRkerRwVlbzqtuJn-30">
          <mxGeometry relative="1" as="geometry">
            <mxPoint x="430" y="540" as="sourcePoint" />
            <mxPoint x="590" y="540" as="targetPoint" />
          </mxGeometry>
        </mxCell>
        <mxCell id="yXTaQRkerRwVlbzqtuJn-33" value="" style="endArrow=none;html=1;rounded=0;exitX=1;exitY=0;exitDx=0;exitDy=0;entryX=0;entryY=0.5;entryDx=0;entryDy=0;" edge="1" parent="1" source="yXTaQRkerRwVlbzqtuJn-29" target="yXTaQRkerRwVlbzqtuJn-31">
          <mxGeometry relative="1" as="geometry">
            <mxPoint x="430" y="540" as="sourcePoint" />
            <mxPoint x="590" y="540" as="targetPoint" />
          </mxGeometry>
        </mxCell>
        <mxCell id="yXTaQRkerRwVlbzqtuJn-34" value="ID" style="ellipse;whiteSpace=wrap;html=1;align=center;" vertex="1" parent="1">
          <mxGeometry x="80" y="300" width="100" height="40" as="geometry" />
        </mxCell>
        <mxCell id="yXTaQRkerRwVlbzqtuJn-35" value="TenNhanvien" style="ellipse;whiteSpace=wrap;html=1;align=center;" vertex="1" parent="1">
          <mxGeometry x="210" y="290" width="100" height="40" as="geometry" />
        </mxCell>
        <mxCell id="yXTaQRkerRwVlbzqtuJn-36" value="Nhan Vien" style="whiteSpace=wrap;html=1;align=center;" vertex="1" parent="1">
          <mxGeometry x="210" y="380" width="100" height="40" as="geometry" />
        </mxCell>
        <mxCell id="yXTaQRkerRwVlbzqtuJn-40" value="Diachi" style="ellipse;whiteSpace=wrap;html=1;align=center;" vertex="1" parent="1">
          <mxGeometry x="340" y="290" width="115" height="40" as="geometry" />
        </mxCell>
        <mxCell id="yXTaQRkerRwVlbzqtuJn-41" value="" style="endArrow=none;html=1;rounded=0;exitX=0.5;exitY=0;exitDx=0;exitDy=0;entryX=0.5;entryY=1;entryDx=0;entryDy=0;" edge="1" parent="1" source="yXTaQRkerRwVlbzqtuJn-36" target="yXTaQRkerRwVlbzqtuJn-35">
          <mxGeometry relative="1" as="geometry">
            <mxPoint x="245.36" y="385.86" as="sourcePoint" />
            <mxPoint x="210.00466094067258" y="330.0021356237311" as="targetPoint" />
          </mxGeometry>
        </mxCell>
        <mxCell id="yXTaQRkerRwVlbzqtuJn-42" value="" style="endArrow=none;html=1;rounded=0;exitX=0;exitY=0;exitDx=0;exitDy=0;entryX=0.5;entryY=1;entryDx=0;entryDy=0;" edge="1" parent="1" source="yXTaQRkerRwVlbzqtuJn-36" target="yXTaQRkerRwVlbzqtuJn-34">
          <mxGeometry relative="1" as="geometry">
            <mxPoint x="430" y="540" as="sourcePoint" />
            <mxPoint x="590" y="540" as="targetPoint" />
          </mxGeometry>
        </mxCell>
        <mxCell id="yXTaQRkerRwVlbzqtuJn-43" value="" style="endArrow=none;html=1;rounded=0;exitX=1;exitY=0;exitDx=0;exitDy=0;entryX=0.5;entryY=1;entryDx=0;entryDy=0;" edge="1" parent="1" source="yXTaQRkerRwVlbzqtuJn-36" target="yXTaQRkerRwVlbzqtuJn-40">
          <mxGeometry relative="1" as="geometry">
            <mxPoint x="320" y="420" as="sourcePoint" />
            <mxPoint x="350" y="330" as="targetPoint" />
          </mxGeometry>
        </mxCell>
        <mxCell id="yXTaQRkerRwVlbzqtuJn-44" value="" style="endArrow=none;html=1;rounded=0;exitX=0.5;exitY=0;exitDx=0;exitDy=0;entryX=0.5;entryY=1;entryDx=0;entryDy=0;" edge="1" parent="1" source="yXTaQRkerRwVlbzqtuJn-2" target="yXTaQRkerRwVlbzqtuJn-36">
          <mxGeometry relative="1" as="geometry">
            <mxPoint x="430" y="540" as="sourcePoint" />
            <mxPoint x="590" y="540" as="targetPoint" />
          </mxGeometry>
        </mxCell>
        <mxCell id="yXTaQRkerRwVlbzqtuJn-47" value="" style="endArrow=none;html=1;rounded=0;exitX=1;exitY=0.5;exitDx=0;exitDy=0;entryX=0;entryY=0.5;entryDx=0;entryDy=0;" edge="1" parent="1" source="yXTaQRkerRwVlbzqtuJn-2" target="yXTaQRkerRwVlbzqtuJn-29">
          <mxGeometry relative="1" as="geometry">
            <mxPoint x="430" y="540" as="sourcePoint" />
            <mxPoint x="590" y="540" as="targetPoint" />
          </mxGeometry>
        </mxCell>
        <mxCell id="yXTaQRkerRwVlbzqtuJn-48" value="n" style="resizable=0;html=1;whiteSpace=wrap;align=left;verticalAlign=bottom;" connectable="0" vertex="1" parent="yXTaQRkerRwVlbzqtuJn-47">
          <mxGeometry x="-1" relative="1" as="geometry" />
        </mxCell>
        <mxCell id="yXTaQRkerRwVlbzqtuJn-49" value="1" style="resizable=0;html=1;whiteSpace=wrap;align=right;verticalAlign=bottom;" connectable="0" vertex="1" parent="yXTaQRkerRwVlbzqtuJn-47">
          <mxGeometry x="1" relative="1" as="geometry" />
        </mxCell>
        <mxCell id="yXTaQRkerRwVlbzqtuJn-50" value="1" style="text;html=1;align=center;verticalAlign=middle;resizable=0;points=[];autosize=1;strokeColor=none;fillColor=none;" vertex="1" parent="1">
          <mxGeometry x="260" y="420" width="30" height="30" as="geometry" />
        </mxCell>
        <mxCell id="yXTaQRkerRwVlbzqtuJn-51" value="n" style="text;html=1;align=center;verticalAlign=middle;resizable=0;points=[];autosize=1;strokeColor=none;fillColor=none;" vertex="1" parent="1">
          <mxGeometry x="260" y="600" width="30" height="30" as="geometry" />
        </mxCell>
      </root>
    </mxGraphModel>
  </diagram>
</mxfile>
